<?xml version="1.0" standalone="no"?>
<!DOCTYPE svg PUBLIC "-//W3C//DTD SVG 20010904//EN"
 "http://www.w3.org/TR/2001/REC-SVG-20010904/DTD/svg10.dtd">
<svg version="1.0" xmlns="http://www.w3.org/2000/svg"
 width="473.000000pt" height="463.000000pt" viewBox="0 0 473.000000 463.000000"
 preserveAspectRatio="xMidYMid meet">

<g transform="translate(0.000000,463.000000) scale(0.100000,-0.100000)"
fill="#000000" stroke="none">
<path d="M3327 4610 c-16 -5 -35 -14 -43 -21 -8 -6 -14 -8 -14 -4 0 4 -6 3
-12 -3 -7 -5 -53 -27 -103 -47 -49 -21 -98 -47 -107 -57 -10 -11 -24 -18 -32
-15 -8 3 -32 -3 -53 -14 -21 -11 -81 -38 -133 -61 -52 -22 -108 -48 -125 -58
-16 -10 -33 -19 -37 -19 -9 -1 -17 -5 -198 -87 -69 -31 -174 -78 -235 -104
-60 -26 -148 -66 -195 -88 -47 -22 -123 -56 -170 -77 -47 -21 -101 -44 -120
-53 -19 -9 -37 -16 -40 -17 -3 -1 -39 -18 -80 -37 -41 -19 -85 -38 -97 -42
-11 -4 -27 -13 -33 -21 -7 -8 -21 -15 -31 -15 -10 0 -69 -24 -132 -54 -98 -47
-116 -59 -130 -89 -34 -72 -32 -77 154 -263 95 -94 172 -175 173 -180 1 -12
-32 -28 -169 -80 -66 -25 -121 -50 -123 -54 -2 -5 -10 -6 -18 -3 -8 3 -14 0
-14 -5 0 -6 -10 -14 -22 -17 -46 -14 -304 -117 -323 -129 -11 -7 -87 -39 -170
-70 -82 -32 -152 -62 -156 -67 -3 -6 -10 -10 -15 -10 -5 1 -22 -5 -39 -13 -16
-8 -79 -34 -140 -57 -60 -24 -112 -45 -115 -48 -3 -3 -14 -8 -25 -9 -11 -2
-33 -12 -50 -22 -16 -10 -41 -21 -55 -25 -30 -9 -43 -22 -66 -65 -26 -50 -23
-207 5 -279 5 -14 31 -125 56 -246 26 -121 57 -263 70 -315 14 -52 26 -107 29
-122 13 -75 62 -123 153 -150 l72 -21 15 -51 c8 -28 36 -139 61 -246 26 -107
69 -285 96 -396 27 -111 58 -241 69 -289 22 -96 52 -157 85 -179 33 -21 211
-68 535 -139 l295 -66 80 14 c119 20 286 59 405 95 58 18 115 34 127 37 37 9
98 69 130 130 17 32 46 112 64 178 18 66 40 149 50 185 9 36 29 106 44 155 15
50 47 160 70 245 51 184 83 291 88 296 2 2 53 18 113 34 102 29 281 82 384
116 25 8 108 32 185 54 77 22 167 49 200 59 33 10 162 48 286 85 125 36 237
70 250 76 13 5 49 16 79 24 101 27 274 77 330 95 30 10 81 26 112 36 64 20
123 72 137 121 5 18 3 180 -5 395 -14 377 -21 426 -62 461 -9 9 -80 41 -157
73 -77 32 -144 61 -150 65 -5 5 -73 35 -150 68 -304 131 -429 188 -432 198 -4
11 21 22 277 124 261 104 274 112 288 157 27 89 23 95 -150 285 -47 51 -131
145 -188 208 -56 63 -133 149 -170 190 -38 41 -93 102 -122 135 -29 34 -71 81
-93 106 -75 84 -186 126 -268 99z m-494 -912 c16 -12 16 -15 -3 -43 -13 -19
-29 -30 -50 -33 -29 -3 -30 -2 -26 30 3 18 5 36 5 40 1 6 23 14 47 17 5 0 18
-5 27 -11z m-93 -44 c0 -8 -19 -13 -24 -6 -3 5 1 9 9 9 8 0 15 -2 15 -3z
m-110 -44 c0 -5 -2 -10 -4 -10 -3 0 -8 5 -11 10 -3 6 -1 10 4 10 6 0 11 -4 11
-10z m100 -1055 c0 -8 -71 -38 -77 -32 -3 4 5 10 18 15 13 5 31 12 39 15 8 3
16 6 18 6 1 1 2 -1 2 -4z m-456 -25 c43 -16 28 -58 -28 -80 -21 -8 -27 -6 -36
10 -15 28 -12 51 8 66 21 16 24 17 56 4z m-1247 -6 c-3 -3 -12 -4 -19 -1 -8 3
-5 6 6 6 11 1 17 -2 13 -5z m-50 -10 c-3 -3 -12 -4 -19 -1 -8 3 -5 6 6 6 11 1
17 -2 13 -5z m1659 -1 c-7 -7 -76 -33 -88 -33 -5 0 -8 4 -8 9 0 4 19 13 43 18
55 14 62 14 53 6z m-531 -43 c4 -7 -2 -9 -18 -5 -18 5 -30 1 -46 -16 -11 -13
-21 -19 -21 -14 0 32 69 60 85 35z m418 3 c-7 -2 -19 -2 -25 0 -7 3 -2 5 12 5
14 0 19 -2 13 -5z m-438 -41 c-11 -3 -23 -9 -27 -15 -4 -6 -11 -8 -15 -3 -12
12 26 36 45 28 15 -5 14 -7 -3 -10z m-174 -3 c12 -6 18 -17 15 -25 -3 -8 -2
-13 3 -10 5 3 11 -5 13 -19 12 -60 -54 -102 -81 -51 -19 34 -17 73 4 96 21 23
20 23 46 9z m179 -34 c0 -8 -4 -15 -10 -15 -5 0 -10 7 -10 15 0 8 5 15 10 15
6 0 10 -7 10 -15z m-370 -62 c18 -5 54 -52 46 -60 -3 -3 -12 0 -21 7 -12 10
-15 10 -15 -5 0 -9 -6 -15 -12 -12 -7 2 -12 14 -11 26 2 12 -6 26 -17 33 -25
16 -26 33 -2 23 9 -4 24 -9 32 -12z m-141 -45 c-3 -25 1 -39 10 -33 6 3 6 -6
1 -25 -5 -16 -6 -30 -2 -30 12 0 -23 -20 -35 -20 -7 0 -13 7 -13 15 0 7 -7 18
-16 23 -15 8 -13 14 17 46 38 40 41 41 38 24z m-185 -98 c-7 -6 -24 22 -23 40
0 9 6 5 14 -10 7 -14 11 -27 9 -30z m36 -14 c0 -36 -15 -56 -42 -56 -22 0 -38
30 -37 67 1 30 3 26 13 -20 5 -22 12 -28 29 -25 25 3 36 43 18 61 -17 17 -13
31 4 17 8 -7 15 -27 15 -44z m-487 -903 c-7 -2 -19 -2 -25 0 -7 3 -2 5 12 5
14 0 19 -2 13 -5z m12 -113 c19 -7 25 -15 21 -28 -3 -10 -7 -37 -8 -61 -1 -33
-6 -45 -20 -49 -10 -2 -18 -9 -18 -14 0 -5 -4 -6 -10 -3 -17 10 -11 165 5 165
2 0 16 -5 30 -10z m-78 -25 c-11 -8 -15 -19 -10 -31 7 -18 6 -18 -11 -1 -17
17 -17 18 6 36 12 11 25 17 28 14 3 -2 -3 -10 -13 -18z m-71 -891 c-8 -22 -26
-7 -26 22 0 23 1 24 16 9 9 -8 13 -22 10 -31z"/>
<path d="M2216 2498 c-3 -13 -1 -27 3 -31 14 -14 46 -3 45 15 -1 10 4 14 12
11 8 -3 14 1 14 8 0 9 -13 15 -34 16 -27 2 -35 -1 -40 -19z"/>
<path d="M1910 2330 c0 -5 5 -10 11 -10 5 0 7 5 4 10 -3 6 -8 10 -11 10 -2 0
-4 -4 -4 -10z"/>
<path d="M1536 2244 c-4 -10 -2 -22 3 -27 14 -14 43 0 39 20 -4 24 -34 28 -42
7z"/>
</g>
</svg>
