<?xml version="1.0"?>
<svg xmlns:rdf="http://www.w3.org/1999/02/22-rdf-syntax-ns#" xmlns="http://www.w3.org/2000/svg" xmlns:cc="http://creativecommons.org/ns#" xmlns:xlink="http://www.w3.org/1999/xlink" xmlns:dc="http://purl.org/dc/elements/1.1/" id="svg8152" viewBox="0 0 367.47 269.05" version="1.1">
  <defs id="defs8154">
    <linearGradient id="linearGradient3933" y2="221.19" gradientUnits="userSpaceOnUse" x2="296.64" y1="221.19" x1="195.64">
      <stop id="stop3929" stop-color="#666" offset="0"/>
      <stop id="stop3931" stop-color="#4690f4" offset="1"/>
    </linearGradient>
    <filter id="filter4033" height="1.5202" width="1.6452" y="-.2601" x="-.3226" color-interpolation-filters="sRGB">
      <feGaussianBlur id="feGaussianBlur4035" stdDeviation="6.3699328"/>
    </filter>
    <linearGradient id="linearGradient4105" y2="210.49" gradientUnits="userSpaceOnUse" x2="335.35" y1="210.49" x1="304.51">
      <stop id="stop4101" stop-color="#808080" offset="0"/>
      <stop id="stop4103" stop-color="#5ac7f9" stop-opacity=".875" offset="1"/>
    </linearGradient>
    <filter id="filter4221" height="1.4119" width="2.1042" y="-.20596" x="-.55208" color-interpolation-filters="sRGB">
      <feGaussianBlur id="feGaussianBlur4223" stdDeviation="2.7297956"/>
    </filter>
    <linearGradient id="linearGradient4233" y2="201.42" gradientUnits="userSpaceOnUse" x2="471.94" y1="115.59" x1="440.93">
      <stop id="stop4229" stop-color="#e9e9e9" offset="0"/>
      <stop id="stop4237" stop-color="#bbb" offset=".15746"/>
      <stop id="stop4235" stop-color="#3e3a3a" offset=".46156"/>
      <stop id="stop4231" stop-color="#333" stop-opacity="0" offset="1"/>
    </linearGradient>
    <filter id="filter4375" color-interpolation-filters="sRGB">
      <feGaussianBlur id="feGaussianBlur4377" stdDeviation="1.4222436"/>
    </filter>
    <linearGradient id="linearGradient4397" y2="220.06" gradientUnits="userSpaceOnUse" x2="504.58" y1="196.13" x1="490.02">
      <stop id="stop4393" stop-color="#808080" offset="0"/>
      <stop id="stop4395" stop-color="#808080" stop-opacity="0" offset="1"/>
    </linearGradient>
    <radialGradient id="radialGradient4413" gradientUnits="userSpaceOnUse" cy="189.58" cx="366.73" gradientTransform="matrix(2.7594 -2.6904 1.183 1.2134 -869.52 946.53)" r="30.162">
      <stop id="stop4409" stop-color="#4d4d4d" offset="0"/>
      <stop id="stop4411" stop-color="#b9b9b9" offset="1"/>
    </radialGradient>
  </defs>
  <g id="layer1" transform="translate(-193.07 -96.672)">
    <path id="path3807" d="m420.95 266.04c-1.147 3.6738-0.11617 9.3415 0.81327 13.383 0.92945 4.0419 5.7313 4.1395 11.714 4.1395" stroke="#000" stroke-width="1px" fill="none"/>
    <path id="path3803" d="m529.38 186.89c-4.6582 8.6155-1.9999 15.722-1.0705 19.764 0.92945 4.0419 4.4216 3.9792 10.404 3.9792" stroke="#000" stroke-width="1px" fill="none"/>
    <path id="path3801" d="m514.82 195.87c-4.6582 8.6155-3.0403 17.152-2.1109 21.194 0.92945 4.0419 5.3319 3.329 11.315 3.329" stroke="#000" stroke-width="1px" fill="none"/>
    <path id="path8171" d="m193.57 173.79v72.857l3.5714 27.857 95.714 28.571 6.4286-30v-79.286z" stroke="#000" stroke-linecap="round" stroke-width="1px" fill="none"/>
    <path id="path8173" d="m193.57 173.79 8.5714-18.571 67.143-23.571 88.571 10.714-55 27.857-3.4414 22.9" stroke="#000" stroke-linecap="round" stroke-width="1px" fill="none"/>
    <path id="path8175" d="m359.04 142.23 1.6774 120.13-67.9 40.432" stroke="#000" stroke-linecap="round" stroke-width="1px" fill="none"/>
    <path id="path8177" d="m194.29 243.79 105 26.429" stroke="#000" stroke-linecap="round" stroke-width="1px" fill="none"/>
    <path id="path8179" d="m303.57 200.22 32.143-17.703v52.703l-26.343 2.6648z" stroke="#000" stroke-linecap="round" stroke-width="1px" fill="none"/>
    <path id="path8181" d="m195 279.51 100 30.714v55l-98.571-35.714z" stroke="#000" stroke-linecap="round" stroke-width="1px" fill="none"/>
    <path id="path8183" d="m295 310.39 67.857-38.737v21.429l58.571-33.571s0.2036 3.5879 0 0c-0.75-13.16 13.57-17.86 13.57-17.86s-0.64214 0.31284 0 0c6.9643-3.3929 12.857 1.4286 12.857 1.4286l1.4286 20.714" stroke="#000" stroke-linecap="round" stroke-width="1px" fill="none"/>
    <path id="path8185" d="m295 364.86 13.571-8.2143 1.7857-28.214s7.1936-21.485 21.479-23.449c6.8019-0.36499 9.2164 1.3067 13.342 8.2703l1.4286 21.964 75.384-52.341-0.50508-23.234" stroke="#000" stroke-linecap="round" stroke-width="1px" fill="none"/>
    <path id="path8187" d="m302.86 170.22-101.43-14.64" stroke="#000" stroke-linecap="round" stroke-width="1px" fill="none"/>
    <path id="path8189" d="m421.79 259.15-61.79-16.79" stroke="#000" stroke-linecap="round" stroke-width="1px" fill="none"/>
    <path id="path8191" d="m440.96 240.4-31.866-7.8713" stroke="#000" stroke-linecap="round" stroke-width="1px" fill="none"/>
    <path id="path8193" d="m367.14 290.58v29.9" stroke="#000" stroke-linecap="round" stroke-width="1px" fill="none"/>
    <path id="path8195" d="m346.43 281.29v51.067" stroke="#000" stroke-linecap="round" stroke-width="1px" fill="none"/>
    <path id="path8197" d="m362.86 287.01l-16.429 10" stroke="#000" stroke-linecap="round" stroke-width="1px" fill="none"/>
    <path id="path8199" d="m362.86 293.43v30.258" stroke="#000" stroke-linecap="round" stroke-width="1px" fill="none"/>
    <path id="path8201" d="m346.07 317.36 16.786-10" stroke="#000" stroke-linecap="round" stroke-width="1px" fill="none"/>
    <path id="path8203" d="m342.44 139.69c84.551-22.643 82.191 125.59 18.183 97.732" stroke="#000" stroke-linecap="round" stroke-width="1px" fill="none"/>
    <path id="path8205" d="m342.44 139.18 171.22-40.907c44.299-9.3218 61.624 43.2 30.81 58.084l-151.4 78.161" stroke="#000" stroke-linecap="round" stroke-width="1px" fill="none"/>
    <path id="path8207" d="m387.39 244.75c2.0203-9.0914 0.63135-6.4397 0.63135-6.4397" stroke="#000" stroke-linecap="round" stroke-width="1px" fill="none"/>
    <path id="path8209" d="m413.15 224.04s-4.5457 6.566-4.5457 10.607c-6.0609 3.0304-21.718 10.102-21.718 10.102" stroke="#000" stroke-linecap="round" stroke-width="1px" fill="none"/>
    <path id="path8211" d="m387.27 244.62c-0.50507 0-13.89-3.4093-13.89-3.4093" stroke="#000" stroke-linecap="round" stroke-width="1px" fill="none"/>
    <path id="path8213" d="m435.88 212.93 17.678 28.537 50.003-32.577 1.2627-6.3135 37.628-24.244 3.5355 2.7779 3.0305-2.2728-3.5355-23.486" stroke="#000" stroke-linecap="round" stroke-width="1px" fill="none"/>
    <path id="path3787" stroke-linejoin="round" d="m344.47 341.54c0 15.033-5.8462 27.219-13.058 27.219-7.2117 0-13.058-12.186-13.058-27.219s5.8462-27.219 13.058-27.219c7.2117 0 13.058 12.186 13.058 27.219z" transform="matrix(1 0 -.17914 1 59.218 -4.3193)" stroke="#000" stroke-linecap="round" fill="none"/>
    <path id="path3789" stroke-linejoin="round" d="m521.23 215.64c0 8.4033-2.7656 15.215-6.1772 15.215s-6.1772-6.8122-6.1772-15.215c0-8.4033 2.7656-15.215 6.1772-15.215s6.1772 6.8122 6.1772 15.215z" transform="matrix(1 0 -.10758 1 19.166 -.39014)" stroke="#000" stroke-linecap="round" fill="#fff"/>
    <path id="path3791" stroke-linejoin="round" d="m521.23 215.64c0 8.4033-2.7656 15.215-6.1772 15.215s-6.1772-6.8122-6.1772-15.215c0-8.4033 2.7656-15.215 6.1772-15.215s6.1772 6.8122 6.1772 15.215z" transform="matrix(1 0 -.10758 1 34.122 -10.534)" stroke="#000" stroke-linecap="round" fill="#fff"/>
    <path id="path3793" stroke-linejoin="round" d="m521.23 215.64c0 8.4033-2.7656 15.215-6.1772 15.215s-6.1772-6.8122-6.1772-15.215c0-8.4033 2.7656-15.215 6.1772-15.215s6.1772 6.8122 6.1772 15.215z" transform="matrix(1 0 -.10758 1 48.947 -20.027)" stroke="#000" stroke-linecap="round" fill="none"/>
    <path id="path3795" d="m449.49 264.48-6.9887-1.4713" stroke="#000" stroke-width="1px" fill="none"/>
    <path id="path3799" d="m497.78 212.38c-1.147 3.6738-1.2196 9.4794-0.29021 13.521 0.92945 4.0419 4.8117 4.3694 10.794 4.3694" stroke="#000" stroke-width="1px" fill="none"/>
    <path id="path3805" d="m367.74 305.35 0.007-14.402 13.005-7.4357c7.1526-4.0896 19.068-10.91 26.478-15.156 7.4104-4.2461 13.683-7.9986 13.74-7.9416 0.15005 0.15006 0.73044 22.005 0.58666 22.144-0.12885 0.12524-53.206 36.821-53.594 37.055-0.18316 0.11022-0.22843-2.7894-0.22271-14.264z" fill="#fff"/>
    <path id="path3016" stroke-linejoin="round" d="m445.62 263.83c-1.1888 10.919-6.1461 19.771-11.072 19.771-4.9263 0-7.9561-8.8517-6.7673-19.771s6.1461-19.771 11.072-19.771c4.9263 0 7.9561 8.8517 6.7673 19.771z" stroke="#000" stroke-linecap="round" fill="#fff"/>
    <path id="path3809" d="m440.01 244.06c-1.8896-1.1235-5.3078-1.4713-6.9887-1.4713" stroke="#000" stroke-linecap="round" stroke-width="1px" fill="none"/>
    <path id="path3811" d="m307.66 344.4c-1.147 3.6738-1.397 9.7224 1.1876 15.328 1.7367 3.7662 9.5054 4.8278 15.488 4.8278" stroke="#000" stroke-width="1px" fill="none"/>
    <path id="path3813" fill="#fff" d="m295.53 340.12v-23.733h20.252l-0.16586 0.25288c-1.8904 2.8822-3.7468 6.4722-5.0762 9.8164l-0.73109 1.8391-0.84403 13.564c-0.46422 7.46-0.86704 13.771-0.89515 14.023l-0.0511 0.45978-6.1571 3.7243c-3.3864 2.0483-6.1963 3.738-6.2441 3.7549-0.0545 0.0192-0.087-8.8288-0.087-23.702z"/>
    <path id="path3815" d="m337.1 310.56c-1.8056-1.254-10.478-2.532-12.155-2.6506" stroke="#000" stroke-linecap="round" stroke-width="1px" fill="none"/>
    <path id="path3817" d="m346.7 335.28-3.3812-1.4751" stroke="#000" stroke-width="1px" fill="none"/>
    <path id="path3819" d="m195.32 176.56 101.89 19.127v70.255l-101.52-25.748z" stroke="#000" stroke-width="1px" fill="none"/>
    <path id="path3821" d="m196.11 247.11 3.3812 25.489 15.606 4.6817v-25.749z" stroke="#000" stroke-width="1px" fill="none"/>
    <path id="path3823" d="m297.03 272.6-5.9822 27.83-14.825-4.6817v-28.87z" stroke="#000" stroke-width="1px" fill="none"/>
    <path id="path3825" d="m198.26 297.76v17.104l18.943 6.437v-17.104z" stroke="#000" stroke-width="1px" fill="none"/>
    <path id="path3827" d="m273.66 323.51v17.104l18.943 6.437v-17.104z" stroke="#000" stroke-width="1px" fill="none"/>
    <path id="path3829" d="m197.93 260.64 16.906 4.6817" stroke="#000" stroke-width="1px" fill="none"/>
    <path id="path3831" d="m276.22 282.75 17.426 4.6817" stroke="#000" stroke-width="1px" fill="none"/>
    <path id="path3833" d="m340.2 273.64v-109.73l-36.413 18.701-2.0808 20.287v93.634" stroke="#000" stroke-width="1px" fill="none"/>
    <path id="path3837" d="m336.43 241.79c-0.043 0.0912-0.0936 0.17892-0.14805 0.26383-0.0806 0.11347-0.1603 0.22716-0.24549 0.33726-0.11914 0.14716-0.25481 0.28026-0.39328 0.40906-0.16262 0.14576-0.3325 0.28291-0.50297 0.41929-0.19819 0.1593-0.41266 0.29587-0.63128 0.42495-0.24896 0.14462-0.50916 0.26817-0.77276 0.38339-0.28991 0.12895-0.5952 0.21387-0.90263 0.28865-0.34047 0.0779-0.68512 0.1361-1.0302 0.18953-0.36108 0.0553-0.72489 0.0878-1.0887 0.1179-0.24874 0.0177-0.12423 0.01-0.37354 0.0239l-1.815-1.796c0.24631-0.0119 0.1235-0.006 0.36843-0.0189 0.35951-0.0285 0.7194-0.0557 1.0766-0.10686 0.33976-0.0465 0.67758-0.10673 1.0138-0.1742 0.29549-0.0681 0.5913-0.13921 0.87118-0.2587 0.25649-0.10607 0.50786-0.22463 0.7499-0.36078 0.20949-0.12047 0.41542-0.24781 0.60502-0.39833 0.16592-0.1321 0.33042-0.26592 0.48939-0.40638 0.12843-0.11803 0.25368-0.24099 0.36323-0.37698 0.079-0.10441 0.15366-0.21175 0.22762-0.31976 0.0512-0.0854 0.097-0.17379 0.14505-0.26099l1.9937 1.62z"/>
    <path id="path3839" d="m453.53 241.3-43.77-11.4" stroke="#000" stroke-width="1px" fill="none"/>
    <path id="path3841" d="m496.75 222.18-9.9127-2.0231" stroke="#000" stroke-width="1px" fill="none"/>
    <path id="path3843" d="m197.16 274.68-2.3909 4.5059" stroke="#000" stroke-width="1px" fill="none"/>
    <path id="path3845" d="m293.25 302.82 1.8391 7.5405" stroke="#000" stroke-width="1px" fill="none"/>
    <path id="path3847" d="m360.62 262.07 2.0807 9.4934" stroke="#000" stroke-width="1px" fill="none"/>
    <path id="path3861" fill="#ff7f2a" d="m253.25 162.56c-26.811-3.8846-48.785-7.1787-48.831-7.3201-0.0461-0.14142 14.543-5.3888 32.42-11.661l32.504-11.404 42.336 5.1047c23.285 2.8076 42.746 5.1932 43.246 5.3014 0.86988 0.18799 0.46544 0.42302-9.1033 5.2902-25.638 13.041-43.124 21.804-43.459 21.779-0.20193-0.0151-22.303-3.2059-49.114-7.0905z"/>
    <path id="path3863" fill="#f60" d="m293.8 301.34c0-0.13293 1.3167-6.2553 2.926-13.605l2.926-13.364 0.13005-40.835 0.13004-40.835 1.6411-10.794c0.90262-5.9366 1.7219-10.947 1.8207-11.134 0.0987-0.18691 12.527-6.5903 27.619-14.23 24.918-12.613 27.446-13.837 27.502-13.315 0.0868 0.79819 1.4044 95.313 1.3623 97.72-0.0188 1.0729 0.0445 6.2812 0.14065 11.574l0.17479 9.6235-9.7133 5.7571-9.7133 5.7571-0.13004-55.231-0.13005-55.231-18.467 9.4712c-10.157 5.2091-18.547 9.6236-18.646 9.8099-0.0986 0.18633-0.65708 5.1375-1.2412 11.003l-1.0619 10.664 0.006 46.089c0.005 41.573 0.0456 46.111 0.41335 46.317 0.311 0.17405-0.506 0.77193-3.4462 2.522-2.1196 1.2616-3.9417 2.3421-4.049 2.4011-0.10729 0.059-0.19507-0.002-0.19507-0.13442z"/>
    <path id="path3865" fill="#d45500" d="m248.05 289.14c-15.375-4.6242-29.114-8.7309-30.53-9.126l-2.5748-0.71826v-14.734c0-8.1038 0.2698-14.734 0.59957-14.734 0.61824 0 53.885 13.351 58.805 14.74 1.5173 0.4281 2.7587 1.1134 2.7587 1.5229 0 0.40948-0.33104 0.5399-0.73565 0.28984-0.48133-0.29748-0.73566 4.7741-0.73566 14.67 0 9.5925 0.26908 15.124 0.73566 15.124 0.40461 0 0.73565 0.33104 0.73565 0.73565s-0.24828 0.7138-0.55174 0.68709c-0.30345-0.0267-13.131-3.832-28.507-8.4562z"/>
    <path id="path3867" fill="#d45500" d="m284.58 300.09c-4.2439-1.2744-7.7513-2.3521-7.7941-2.395-0.0429-0.0429-0.009-0.1472 0.0759-0.23184 0.0846-0.0846 0.15389-0.32457 0.15389-0.53318 0-0.29798 0.0488-0.36611 0.22758-0.31779 0.12517 0.0338 3.3432 1.0459 7.1512 2.249s6.9545 2.1566 6.9922 2.1189c0.15556-0.15556 6.1948-28.621 6.0925-28.717-0.0612-0.0573-4.4125-1.2845-9.6697-2.7271-5.2571-1.4426-9.8533-2.7074-10.214-2.8107-0.57984-0.16625-0.65469-0.22801-0.65023-0.53661 0.005-0.33649-0.1418-0.48027-1.0522-1.0315-0.13379-0.081-0.20518-0.18737-0.15863-0.23635 0.0466-0.049 5.2078 1.2024 11.469 2.7808 6.2616 1.5784 11.417 2.8698 11.457 2.8698 0.0397 0 0.0722 0.59542 0.0722 1.3232 0 1.3318-0.54851 4.009-6.1167 29.856-0.0809 0.37551-0.18613 0.67689-0.23385 0.66973-0.0477-0.007-3.559-1.0557-7.8029-2.3301z"/>
    <path id="path3869" fill="#d45500" d="m206.22 276.7c-4.7171-1.4136-8.592-2.6228-8.6109-2.6872s-0.82648-6.3007-1.7946-13.858c-1.5697-12.254-1.9508-15.844-1.6816-15.844 0.14072 0 21.441 5.3585 21.542 5.4194 0.0542 0.0325 0.0103 0.14736-0.0975 0.25519-0.10784 0.10784-0.19607 0.40066-0.19607 0.65071 0 0.37069-0.042 0.44281-0.22758 0.39059-0.96713-0.27215-19.55-4.536-19.586-4.494-0.0255 0.0297 0.63896 5.2038 1.4766 11.498 0.83765 6.2943 1.6259 12.237 1.7517 13.206l0.22872 1.7615 7.9834 2.3922 7.9834 2.3922v0.75562c0 0.41559-0.0439 0.75056-0.0975 0.74437-0.0537-0.006-3.957-1.1678-8.6741-2.5814z"/>
    <path id="path3871" fill="#d45500" d="m246.75 183.36c-28.224-5.37-51.551-9.8495-51.837-9.9544-0.40941-0.14995 6.5298-16.101 7.3699-16.941 0.21711-0.21711 99.254 13.947 99.649 14.251 0.21466 0.16539-2.3539 18.928-2.9235 21.355-0.15107 0.64373-0.42485 1.1438-0.60841 1.1112s-23.426-4.4529-51.65-9.8229z"/>
    <path id="path3873" fill="#d45500" d="m245.69 346.8c-26.519-9.6382-48.33-17.643-48.468-17.788-0.13846-0.14529-0.50773-9.7427-0.82061-21.328s-0.6381-22.409-0.7227-24.055c-0.12541-2.4386-0.004-2.9872 0.65965-2.9704 0.44741 0.0114 22.7 6.7528 49.451 14.981l48.637 14.96 0.13473 26.894c0.0741 14.792-0.0429 26.88-0.26009 26.862-0.21715-0.0177-22.092-7.9181-48.611-17.556zm47.436-8.105c0-8.1326-0.0921-9.0841-0.91033-9.4083-0.50068-0.19837-4.9536-1.7349-9.8955-3.4145l-8.9851-3.0538 0.14196 9.14 0.14196 9.14 9.3634 3.2843c5.1498 1.8064 9.5389 3.3013 9.7535 3.3221 0.21457 0.0208 0.39014-4.0336 0.39014-9.0098zm-75.427-25.935-0.00005-8.9732-9.225-3.1211c-5.0737-1.7166-9.5213-3.1968-9.8835-3.2893-0.51256-0.13091-0.65853 1.8485-0.65853 8.9299v9.0981l9.2333 3.1234c5.0783 1.7179 9.5259 3.1419 9.8836 3.1645 0.49664 0.0314 0.65022-2.0784 0.65018-8.9322z"/>
    <path id="path3875" fill="#f60" d="m295.54 361.9c-0.42358-2.5624-0.42477-40.788-0.001-46.752l0.3306-4.6575 21.338-12.198c11.736-6.7092 22.94-13.094 24.898-14.189l3.5604-1.9904v14.908c0 8.4507-0.19976 14.833-0.46118 14.735-0.25364-0.0954-1.2594-1.2254-2.235-2.5113-2.7917-3.6794-5.0979-4.7552-9.7883-4.5658-4.7612 0.19224-7.6671 1.4838-11.765 5.2294-3.5872 3.2785-6.4373 7.4341-9.3104 13.575l-2.2203 4.7455-0.85401 13.753c-0.4697 7.564-1.0896 14.037-1.3775 14.384-0.2879 0.34691-2.7878 2-5.5552 3.6735-2.7675 1.6735-5.3032 3.2132-5.635 3.4217-0.40188 0.25243-0.71026-0.26848-0.92385-1.5606z"/>
    <path id="path3877" fill="#f60" d="m363.35 282.09c0-8.0254-0.20593-11.042-1.0066-14.747-1.3611-6.2972-1.7775-24.283-0.55391-23.924 0.42915 0.12593 13.538 3.6714 29.13 7.8787 15.593 4.2074 28.533 7.808 28.757 8.0015 0.22398 0.19342-11.597 7.2278-26.269 15.632-14.672 8.4041-27.437 15.723-28.367 16.264l-1.6906 0.98393v-10.089z"/>
    <path id="path3879" fill="#f60" d="m395.34 251.47c-13.447-3.6795-26.731-7.3117-29.521-8.0715l-5.0718-1.3814v-4.0208l2.731 1.0176c1.502 0.55969 4.2525 1.36 6.1122 1.7784 1.8597 0.41843 6.6146 1.5794 10.566 2.58l7.1852 1.8192 10.708-5.0144c7.1085-3.3287 10.79-5.3275 10.952-5.9458 0.13396-0.51228 0.45817-0.93142 0.72047-0.93142 0.41257 0 19.846 4.7861 25.629 6.312l2.0388 0.53794-2.9934 1.2166c-7.5456 3.0668-13.309 9.7504-13.309 15.434 0 0.85659-0.27078 1.4452-0.65023 1.4134-0.35763-0.03-11.652-3.065-25.099-6.7446z"/>
    <path id="path3881" fill="#f60" d="m367.63 305.24 0.13827-14.413 26.53-15.217 26.53-15.217 0.33084 6.6113c0.18196 3.6362 0.35752 8.6367 0.39014 11.112l0.0593 4.5009-26.727 18.517c-14.7 10.185-26.876 18.517-27.058 18.517-0.18187 0-0.26845-6.4857-0.19239-14.413z"/>
    <path id="path3883" fill="#f60" d="m363.42 307.98 0.00026-14.63 1.363-0.78028c0.74967-0.42915 1.4518-0.81929 1.5603-0.86698 0.1085-0.0477 0.19727 6.4743 0.19727 14.493v14.58l-1.362 0.91723c-0.74911 0.50448-1.4514 0.91724-1.5606 0.91724s-0.19843-6.5836-0.19828-14.63z"/>
    <path id="path3885" d="m280.79 265.03c-9.799-2.4602-33.295-8.3685-52.214-13.129l-34.397-8.6564v-30.543c0-35.721 0.0203-36.957 0.27914-36.871 0.25622 0.0853 0.49727 0.65613 0.53254 35.599 0.0161 15.98 0.20584 29.094 0.2601 29.144 0.13034 0.11981 101.84 25.899 102.18 25.899 0.17805 0 0.26455-11.64 0.26455-35.599v-35.599l-1.4955-0.29069c-18.21-3.54-101.34-18.97-101.62-18.86-0.3061 0.11746-0.39254-0.0598-0.39254-0.80505 0-0.78748 0.0801-0.93225 0.45517-0.82257 0.25034 0.0732 23.743 4.5351 52.206 9.9153s51.784 9.8152 51.824 9.8555c0.0403 0.0403 0.0437 16.985 0.007 37.654l-0.0659 37.581-17.816-4.4731z" fill="#4d4d4d"/>
    <path id="path3887" stroke-linejoin="round" d="m344.47 341.54c0 15.033-5.8462 27.219-13.058 27.219-7.2117 0-13.058-12.186-13.058-27.219s5.8462-27.219 13.058-27.219c7.2117 0 13.058 12.186 13.058 27.219z" transform="matrix(.57789 0 -.10352 .55405 173.28 147.99)" stroke="#000" stroke-linecap="round" stroke-width="1.7673" fill="none"/>
    <path id="path3889" fill="#333" d="m322.11 363.23c-3.6434-1.6544-5.994-8.1617-6.0133-16.647-0.0333-14.568 7.3691-31.714 15.234-35.286 3.0277-1.3752 6.2254-0.4813 8.1348 2.274 5.5718 8.0402 3.835 27.713-3.5955 40.726-3.0472 5.3365-8.03 9.6537-11.116 9.6315-0.61777-0.004-1.8072-0.31865-2.6431-0.69824zm7.2653-11.277c2.5892-1.3223 5.6665-6.1214 7.2808-11.355 3.0105-9.7592 0.46459-19.54-4.9031-18.837-7.9026 1.0356-14.103 20.879-8.9396 28.608 1.5794 2.3643 3.9242 2.93 6.5619 1.583z"/>
    <path id="path3891" fill="#333" d="m316.85 363.37c-3.9779-0.71992-6.5674-2.1554-7.6026-4.2146-0.50306-1.0006-0.70163-1.803-0.50489-2.04 0.17836-0.21491 0.73759-6.7644 1.2427-14.554l0.91843-14.164 1.2342-2.9232c2.2777-5.3946 5.9158-10.949 9.3182-14.227 3.1271-3.0126 2.9319-2.9466 6.8417-2.3125 1.8836 0.30549 3.5903 0.5591 3.7926 0.56358 0.20231 0.004-0.5413 0.5092-1.6525 1.1216-2.3895 1.3169-3.5834 2.3954-5.6754 5.1263-3.4506 4.5046-5.9271 9.8051-7.7362 16.558-3.3342 12.446-2.3003 25.214 2.4494 30.25 1.4644 1.5528 1.4576 1.5549-2.6258 0.81588z"/>
    <path id="path3893" stroke-linejoin="round" d="m441.51 263.83c-0.6409 5.942-3.3134 10.759-5.9692 10.759s-4.2892-4.817-3.6483-10.759 3.3134-10.759 5.9692-10.759 4.2892 4.817 3.6483 10.759z" stroke="#000" stroke-linecap="round" fill="#fff"/>
    <path id="path3895" fill="#333" d="m433.72 282.97c-2.6167-0.84164-4.3992-4.0296-5.3584-9.5836-0.35616-2.0621-0.30078-8.244 0.0969-10.814 1.7048-11.016 6.614-18.826 11.217-17.845 1.8633 0.3974 3.7834 3.0123 4.7031 6.4048 0.87826 3.2397 1.2009 8.651 0.74586 12.511-1.2424 10.54-5.593 18.795-10.215 19.382-0.40031 0.0509-0.93528 0.0258-1.1888-0.0558zm3.5055-8.4542c1.0255-0.65953 1.452-1.1268 2.2687-2.4858 3.057-5.0869 3.5494-14.429 0.94086-17.849-1.617-2.12-3.5246-2.1004-5.4635 0.0561-3.2029 3.5624-4.6421 11.959-2.9647 17.296 0.96077 3.057 3.1539 4.3104 5.2187 2.9826z"/>
    <path id="path3897" fill="#333" d="m426.76 282.67c-1.8284-0.33127-3.2416-1.0477-3.8349-1.9442l-0.47233-0.71375-0.14849-6.3948c-0.22602-9.7335-0.25373-13.902-0.0948-14.259 0.0863-0.1938 0.052-0.43545-0.0852-0.60082-0.27844-0.33549-0.12438-2.457 0.29547-4.0689 1.1235-4.3134 4.3622-8.1448 9.2042-10.888l1.311-0.74285 1.7236 0.17716c0.94799 0.0974 1.9684 0.24299 2.2675 0.32347l0.54387 0.14631-0.89436 0.43296c-1.9879 0.96234-4.4447 3.909-5.9183 7.0984-2.3618 5.1117-3.5627 10.925-3.5627 17.246 0 6.0788 1.1763 10.711 3.419 13.465l0.81529 1.001-1.6114-0.0166c-0.88625-0.009-2.2171-0.12634-2.9574-0.26046v-0.00001z"/>
    <path id="path3899" stroke-linejoin="round" d="m521.23 215.64c0 8.4033-2.7656 15.215-6.1772 15.215s-6.1772-6.8122-6.1772-15.215c0-8.4033 2.7656-15.215 6.1772-15.215s6.1772 6.8122 6.1772 15.215z" transform="matrix(.48209 0 -.051862 .49838 273.9 107.78)" stroke="#000" stroke-linecap="round" stroke-width="2.0401" fill="#fff"/>
    <path id="path3901" stroke-linejoin="round" d="m521.23 215.64c0 8.4033-2.7656 15.215-6.1772 15.215s-6.1772-6.8122-6.1772-15.215c0-8.4033 2.7656-15.215 6.1772-15.215s6.1772 6.8122 6.1772 15.215z" transform="matrix(.48209 0 -.051862 .49838 288.89 98.125)" stroke="#000" stroke-linecap="round" stroke-width="2.0401" fill="#fff"/>
    <path id="path3903" stroke-linejoin="round" d="m521.23 215.64c0 8.4033-2.7656 15.215-6.1772 15.215s-6.1772-6.8122-6.1772-15.215c0-8.4033 2.7656-15.215 6.1772-15.215s6.1772 6.8122 6.1772 15.215z" transform="matrix(.48209 0 -.051862 .49838 303.79 88.47)" stroke="#000" stroke-linecap="round" stroke-width="2.0401" fill="#fff"/>
    <path id="path3905" d="m512.66 199.74c-2.5748-0.27587-2.9426-0.27587-2.9426-0.27587" stroke="#000" stroke-width="1px" fill="none"/>
    <path id="path3907" fill="#333" d="m504.95 229.69c-1.0268-0.0487-2.7756-0.29494-3.4787-0.48978-1.7449-0.48354-2.814-1.4063-3.3144-2.8608-0.2041-0.59323-0.51953-2.4028-0.65282-3.7451-0.12287-1.2375-0.12161-4.8282 0.002-5.9711 0.13756-1.2708 0.44306-3.0311 0.58502-3.3708 0.0982-0.23512 0.66355-0.64142 3.0195-2.1702l2.8986-1.8809 0.63322-3.162 0.63322-3.162 2.2709-1.4659 2.2709-1.4659 0.50868 0.0636 0.50869 0.0635-0.39062 0.26026c-0.90459 0.60269-2.0643 2.0419-2.9069 3.6075-3.3406 6.207-4.4256 16.732-2.342 22.718 0.36665 1.0534 0.74971 1.8542 1.1725 2.4514 0.48573 0.68604 0.49826 0.64557-0.1939 0.62598-0.34437-0.01-0.89511-0.0305-1.2238-0.0461z"/>
    <path id="path3909" fill="#333" d="m508.47 229.71c-1.4724-0.73374-2.6084-3.2496-3.1108-6.8896-0.20004-1.4494-0.22979-5.4836-0.0525-7.1267 0.29769-2.7595 0.8146-5.2347 1.5755-7.5444 1.762-5.3481 4.3929-8.2979 6.6004-7.4004 0.60266 0.24504 1.4184 1.1825 1.9041 2.1882 2.3626 4.8922 1.9018 14.715-1.011 21.548-0.79057 1.8546-1.6481 3.2194-2.665 4.2414-1.1644 1.1702-2.2218 1.491-3.2408 0.98323zm2.6046-6.6015c1.2042-0.56076 2.4265-2.7735 3.029-5.4836 0.35673-1.6045 0.45545-2.5398 0.45616-4.322 0.00073-1.8415-0.12875-2.7741-0.5552-3.9992-0.77653-2.2306-2.4191-2.7658-3.8681-1.2602-2.1411 2.2248-3.3107 8.4534-2.3256 12.386 0.58905 2.3518 1.8115 3.3552 3.2637 2.6789z"/>
    <path id="path3911" fill="#333" d="m517.42 219.85-0.44793-0.0349 0.0522-0.29337c0.71934-4.0418 0.83567-5.1658 0.83939-8.1097 0.005-3.9086-0.49155-6.7318-1.5658-8.9037-0.66149-1.3374-1.4355-2.2342-2.2532-2.6109-0.19577-0.0902-0.35702-0.19738-0.35833-0.23823-0.006-0.1832 1.1462-2.7717 1.3204-2.9666 0.19555-0.21889 10.137-6.6605 10.28-6.6605 0.17363 0 0.0464 0.16908-0.46744 0.62142-2.6998 2.3765-4.9225 8.3426-5.5753 14.965-0.18762 1.9035-0.14286 5.8812 0.0828 7.3607 0.447 2.9304 1.1704 4.9558 2.2696 6.3544l0.45906 0.58413-2.0936-0.0166c-1.1515-0.009-2.2951-0.0323-2.5415-0.0515z"/>
    <path id="path3913" fill="#333" d="m523.67 219.68c-0.33738-0.10703-0.60028-0.29197-1.0115-0.71152-1.0952-1.1173-1.8284-3.0311-2.3117-6.0337-0.19469-1.2095-0.27521-5.1349-0.13781-6.7188 0.55933-6.4481 2.6006-12.239 5.1679-14.661 0.82968-0.78268 1.482-1.1027 2.2434-1.1005 0.71099 0.002 1.1495 0.22953 1.8006 0.93424 2.583 2.7954 3.1936 11.024 1.3704 18.467-0.95334 3.8917-2.3236 6.8284-4.0098 8.5933-1.0973 1.1486-2.1099 1.5493-3.1115 1.2315zm2.3908-6.2309c1.2042-0.56076 2.4265-2.7735 3.029-5.4836 0.35673-1.6045 0.45545-2.5398 0.45616-4.322 0.00074-1.8415-0.12875-2.7741-0.5552-3.9992-0.77653-2.2306-2.4191-2.7658-3.8681-1.2602-2.1411 2.2248-3.3107 8.4534-2.3256 12.386 0.58905 2.3518 1.8115 3.3552 3.2637 2.6789z"/>
    <path id="path3915" fill="#333" d="m533.92 210.02c-0.73622-0.0673-1.8126-0.23572-1.9164-0.29988-0.0865-0.0535-0.0812-0.2012 0.0238-0.65971 0.63129-2.7576 0.95705-6.6631 0.79153-9.4895-0.30193-5.1557-1.5812-8.5161-3.719-9.769l-0.41347-0.24231 0.21363-0.47638c0.1175-0.262 0.39502-0.83926 0.61672-1.2828l0.40309-0.80642 6.1578-3.9628c3.3868-2.1795 6.2086-3.9823 6.2707-4.0061 0.11467-0.044 1.5949 1.0471 1.5949 1.1756 0 0.0386-0.23794-0.0139-0.52875-0.11663-0.4082-0.14418-0.68012-0.17723-1.1927-0.14497-3.6147 0.22753-7.0339 6.771-8.085 15.473-0.23496 1.9451-0.23616 6.3352-0.002 7.9083 0.23535 1.5823 0.49096 2.7008 0.85859 3.7569 0.38639 1.1101 0.65771 1.6645 1.1878 2.4272l0.39947 0.57473-1.1694-0.0147c-0.64315-0.008-1.3142-0.0279-1.4912-0.0441z"/>
    <path id="path3917" fill="#333" d="m538.53 210.15c-3.3748-1.0399-4.6534-10.512-2.5874-19.166 0.69044-2.8923 1.8326-5.702 3.058-7.5224 0.52429-0.77887 1.768-1.988 2.3222-2.2576 1.4533-0.70713 2.744-0.0458 3.7654 1.9293 2.6769 5.1767 1.8468 16.714-1.6739 23.264-0.9387 1.7464-2.0897 3.079-3.0782 3.5639-0.7594 0.37251-1.0971 0.40793-1.8061 0.18945zm2.4289-6.3619c1.2042-0.56077 2.4265-2.7735 3.029-5.4836 0.35674-1.6045 0.45546-2.5398 0.45616-4.322 0.00074-1.8415-0.12875-2.7742-0.5552-3.9992-0.77652-2.2306-2.4191-2.7658-3.8681-1.2602-2.1411 2.2248-3.3106 8.4534-2.3256 12.386 0.58906 2.3518 1.8115 3.3552 3.2638 2.6789z"/>
    <path id="path3919" fill="#808080" d="m344.73 333.88c-1.0315-0.45159-1.1994-0.56743-1.1437-0.78951 0.17586-0.7022 0.35228-5.1482 0.2735-6.8926-0.35528-7.8677-2.2865-12.939-5.9608-15.654-1.3802-1.0196-3.5434-1.6571-8.4045-2.4768-1.7038-0.28731-2.9406-0.55546-2.9701-0.64398-0.10774-0.32323 2.9806-1.498 4.8361-1.8396 1.148-0.21136 4.2406-0.0957 5.4101 0.20226 2.7107 0.69072 4.8487 2.6464 7.3158 6.6918l0.59482 0.97535 0.67091 10.306c0.369 5.6683 0.65196 10.383 0.62881 10.478-0.0306 0.12523-0.3711 0.028-1.251-0.35719z"/>
    <path id="path3921" fill="#808080" d="m446.89 263.42c-0.60773-0.17056-0.61357-0.20676-0.57317-3.553 0.0815-6.7498-1.3414-12.08-3.9013-14.615-1.2139-1.2019-3.1426-2.2057-5.1323-2.6713-1.6338-0.38226-1.6451-0.79321-0.0336-1.2191 1.6717-0.44176 4.3559-0.40896 5.9806 0.0731 1.5136 0.44907 3.7568 1.5061 3.9871 1.8788 0.12932 0.20923 1.4571 18.118 1.4571 19.653 0 0.71763-0.44196 0.82985-1.7844 0.4531z"/>
    <path id="path3923" fill="#808080" d="m493.28 220.97c-1.2875-0.27146-2.9618-0.62054-3.7208-0.77572-0.75901-0.15519-1.3424-0.39491-1.2965-0.53272 0.0804-0.24128 8.331-5.7129 8.444-5.5999 0.0305 0.0305-0.0626 1.2812-0.20683 2.7794-0.14425 1.4981-0.19481 3.1628-0.11237 3.6992 0.17742 1.1544 0.26927 1.1417-3.1074 0.42976z"/>
    <path id="path3925" fill="url(#linearGradient3933)" d="m246.51 252.54c-27.465-6.9627-49.976-12.699-50.024-12.748-0.0482-0.0486-0.2588-14.155-0.468-31.347l-0.38037-31.259 50.404 9.4511 50.404 9.4511 0.13701 17.218c0.0754 9.47 0.0754 25.02 0 34.556l-0.13701 17.337-49.936-12.66z"/>
    <path id="path3935" opacity=".57965" filter="url(#filter4033)" d="m244.49 193.53c7.3279-1.3505 11.936 2.6009 19.767 2.6009 46.077 0 21.606 60.1 17.166 55.66-9.8826-9.8826-30.777-44.388-36.413-55.66" fill="#fff"/>
    <path id="path4037" fill="#b3b3b3" d="m284.73 284.53-7.9328-2.15-0.069-7.4429c-0.0548-5.9131-0.001-7.4192 0.26009-7.3275 0.181 0.0635 4.5878 1.2859 9.793 2.7165 5.2051 1.4306 9.496 2.6338 9.5353 2.6739s-0.58485 3.1452-1.3869 6.9003c-1.1603 5.4322-1.5409 6.8226-1.8625 6.8036-0.22232-0.0131-3.974-0.99139-8.3371-2.1739z"/>
    <path id="path4039" fill="#b3b3b3" d="m283.56 297.55-6.7624-2.1482-0.0698-6.0207c-0.0553-4.7728-0.001-5.9972 0.26009-5.9076 0.28665 0.0983 11.892 3.2214 14.96 4.026 0.76769 0.20131 1.1054 0.4286 1.1054 0.74396 0 0.24976-0.39736 2.2642-0.88302 4.4766s-1.0206 4.6955-1.1889 5.518c-0.16821 0.82254-0.38532 1.4876-0.48247 1.4778-0.0971-0.01-3.2197-0.98444-6.9391-2.1659z"/>
    <path id="path4041" fill="#b3b3b3" d="m207.31 274.41c-3.8905-1.1756-7.1389-2.2028-7.2187-2.2825-0.22563-0.22562-1.5363-10.367-1.3623-10.541 0.085-0.0849 3.6713 0.81603 7.9696 2.0022l7.8151 2.1566v5.4171c0 2.9794-0.0293 5.4099-0.065 5.401-0.0358-0.009-3.2482-0.97793-7.1387-2.1535z"/>
    <path id="path4043" fill="#b3b3b3" d="m206.27 262.44c-4.1761-1.1685-7.6676-2.1994-7.759-2.2908-0.16161-0.16161-1.6612-10.722-1.6766-11.807-0.008-0.59279-1.1391-0.81403 14.232 2.7849l3.4462 0.80686v6.3431c0 4.916-0.0731 6.3368-0.32512 6.3152-0.17881-0.0154-3.7419-0.98402-7.918-2.1525z"/>
    <path id="path4045" fill="#b3b3b3" d="m210.22 318.43c-3.2902-1.1258-7.1818-2.4697-8.6481-2.9865l-2.666-0.93961v-7.9046c0-4.3475 0.0878-7.9072 0.19507-7.9104 0.10728-0.003 4.0867 1.312 8.8432 2.9226l8.6481 2.9285v8.0013c0 4.4007-0.0878 7.9865-0.19507 7.9684-0.10729-0.0181-2.887-0.95396-6.1772-2.0798z"/>
    <path id="path4047" fill="#b3b3b3" d="m282.85 343.23-8.7782-3.0103v-7.8869c0-6.1332 0.0723-7.8881 0.32511-7.8924 0.17882-0.003 4.2163 1.3137 8.9723 2.926l8.6472 2.9315 0.00094 7.9979c0.00053 4.3988-0.0868 7.9859-0.19411 7.9712-0.10729-0.0147-4.1452-1.3813-8.9732-3.037z"/>
    <path id="path4049" fill="#008080" d="m244.7 294.25c-26.954-8.287-49.053-15.113-49.109-15.17-0.0564-0.0564 0.32257-0.94693 0.84224-1.9789 0.87754-1.7426 0.99456-1.8659 1.6423-1.731 0.8498 0.17693 94.765 28.216 94.855 28.32 0.0349 0.0403 0.35592 1.3316 0.71348 2.8694 0.42947 1.8471 0.55056 2.7896 0.35679 2.777-0.16133-0.0104-22.346-6.7992-49.3-15.086z"/>
    <path id="path4051" fill="#008080" d="m295.16 308.38c-0.80167-3.0423-1.3795-5.5549-1.2928-5.6215 0.68639-0.52741 66.356-39.464 66.431-39.388 0.19953 0.19953 1.7166 7.511 1.6347 7.8783-0.0715 0.32064-65.84 38.103-66.331 38.106-0.10178 0.00053-0.30071-0.43794-0.44207-0.97438z"/>
    <path id="path4059" d="m362.31 323.32-8.5831-2.0808v-8.323" stroke="#000" stroke-width="1px" fill="none"/>
    <path id="path4061" d="m362.83 307.71-10.664-2.0808v-11.964" stroke="#000" stroke-width="1px" fill="none"/>
    <path id="path4063" d="m362.57 286.65-11.184-2.6009v-5.462" stroke="#000" stroke-width="1px" fill="none"/>
    <path id="path4065" d="m353.47 320.98-6.5023 3.6413" stroke="#000" stroke-width="1px" fill="none"/>
    <path id="path4067" d="m351.91 305.37-4.9418 2.6009" stroke="#000" stroke-width="1px" fill="none"/>
    <path id="path4069" d="m351.39 284.05-5.2019 2.861" stroke="#000" stroke-width="1px" fill="none"/>
    <path id="path4071" fill="#333" d="m347.02 333.52c-0.0632-0.3161-0.11495-2.3713-0.11495-4.5672 0-3.2275 0.0475-3.9925 0.24808-3.9925 0.13644 0 1.5289-0.71726 3.0944-1.5939 1.5654-0.87665 3.0056-1.5928 3.2003-1.5914 0.70289 0.005 8.4446 1.9767 8.3814 2.1346-0.0698 0.17406-14.388 10.172-14.579 10.18-0.0632 0.003-0.16667-0.25356-0.22989-0.56967z"/>
    <path id="path4075" fill="#333" d="m346.91 312.16c0-2.6282 0.063-3.9457 0.18521-3.8702 0.10186 0.063 1.126-0.38734 2.2758-1.0007 1.1498-0.61332 2.2829-1.1151 2.5179-1.1151 0.40866 0 8.8487 1.628 8.9464 1.7257 0.0559 0.0559-13.218 7.9737-13.637 8.1345-0.25576 0.0981-0.28787-0.33398-0.28787-3.8742z"/>
    <path id="path4077" fill="#333" d="m346.91 291.59v-4.5065l2.2171-1.2124c1.2194-0.66678 2.2746-1.2152 2.3449-1.2187 0.42413-0.021 10.146 2.32 10.107 2.4338-0.0385 0.11215-10.81 6.7451-13.887 8.5513l-0.78163 0.45884v-4.5065z"/>
    <path id="path4079" fill="#666" d="m346.95 283.65 0.0517-2.344 1.8391-1.0748c1.0115-0.59111 1.9012-1.0786 1.9771-1.0833 0.0759-0.005 0.13794 1.0193 0.13794 2.2755v2.284l-1.6092 0.87301c-0.88508 0.48015-1.798 0.99462-2.0287 1.1432l-0.41948 0.27024 0.0516-2.344z"/>
    <path id="path4081" fill="#666" d="m357.07 284.85-5.1956-1.1998 0.002-2.5771 0.002-2.5771 5.1933-2.9636 5.1933-2.9636 0.05 3.3774c0.0275 1.8576 0.0275 4.8907 0 6.7404l-0.05 3.3631-5.1956-1.1998z"/>
    <path id="path4083" fill="#666" d="m357.25 306.13-4.6464-0.92153 0.0486-5.7073 0.0486-5.7073 4.322-2.6482c2.3771-1.4565 4.5496-2.7696 4.8277-2.918l0.50576-0.26978v9.5682c0 7.5434-0.0487 9.5637-0.22989 9.5468-0.12644-0.0118-2.3208-0.43615-4.8763-0.94299z"/>
    <path id="path4085" fill="#666" d="m346.95 302.26 0.0489-5.0116 2.2025-1.3334c1.2114-0.73335 2.2678-1.3334 2.3478-1.3334 0.0799 0 0.12332 2.335 0.0965 5.1889l-0.0488 5.1889-2.2022 1.1562c-1.2112 0.63588-2.2678 1.1562-2.3478 1.1562-0.0801 0-0.12364-2.2552-0.0967-5.0116z"/>
    <path id="path4087" fill="#666" d="m357.99 321.77-3.7242-0.91736 0.00088-3.8899 0.00088-3.8899 3.9467-2.3449c2.1707-1.2897 3.9911-2.3449 4.0452-2.3449 0.0542 0 0.0985 3.2277 0.0985 7.1726 0 6.7163-0.0205 7.1713-0.32185 7.1521-0.17701-0.0113-1.9978-0.43333-4.0461-0.93787z"/>
    <path id="path4089" fill="#666" d="m346.91 320.75v-3.2914l3.003-1.7797c1.6517-0.97883 3.0586-1.7797 3.1265-1.7797s0.12236 1.5104 0.12094 3.3564l-0.003 3.3564-1.4228 0.77852c-0.78251 0.42819-2.1883 1.1998-3.124 1.7146l-1.7012 0.93612v-3.2914z"/>
    <path id="path4091" d="m345.02 205.07 2.5748 1.4713v56.278l-1.2874 2.3909" stroke="#4d4d4d" stroke-linecap="round" stroke-width="3" fill="none"/>
    <path id="path4093" fill="#f60" d="m302.1 249.23c0-37.435 0.13349-47.076 0.64946-46.904 0.42655 0.14218 1.5924 6.352 3.3968 18.092 1.5111 9.8316 2.7989 17.911 2.8618 17.953 0.0629 0.0426 6.2006-0.53079 13.639-1.2743l13.525-1.3518 0.13475-26.976c0.12562-25.146 0.0751-26.953-0.74448-26.638-0.85966 0.32989-26.306 14.246-30.783 16.835l-2.2627 1.3083 0.38353-4.1113c0.21093-2.2612 0.64392-6.1747 0.96219-8.6966l0.57866-4.5853 17.426-8.9825c9.5844-4.9404 17.483-8.9458 17.552-8.9009 0.0689 0.0449 0.13964 24.643 0.15711 54.663l0.0318 54.581-18.364 11.02c-10.1 6.0611-18.539 11.035-18.754 11.054-0.21458 0.0186-0.39014-21.17-0.39014-47.086zm30.663-4.8984c0.51022 0 1.5567-0.49477 2.3254-1.0995 1.3209-1.039 1.3497-1.1526 0.52328-2.0658-0.85151-0.94091-0.90825-0.93971-2.1606 0.0454-0.70741 0.55644-2.0926 1.163-3.0782 1.3479-1.7279 0.32416-1.7598 0.37182-0.89038 1.3325 0.4959 0.54797 1.2282 0.871 1.6272 0.71787 0.39908-0.15313 1.143-0.27842 1.6533-0.27842z"/>
    <path id="path4095" fill="#f60" d="m304.02 207.65c-0.0133-0.0447-0.087-0.4324-0.16387-0.86156-0.37102-2.0729-0.90375-4.2463-1.0758-4.3891-0.0619-0.0514-0.098-0.001-0.15059 0.21005-0.0748 0.30053-0.20164 1.8279-0.22504 2.7108-0.01 0.36937-0.041 0.55621-0.0958 0.57437-0.14018 0.0464-0.10756-2.9541 0.0479-4.4055 0.0709-0.66161 0.12931-1.2412 0.12988-1.288s0.0316-0.0662 0.0689-0.0432c0.0373 0.0231 0.14229-0.007 0.23323-0.0664 0.0909-0.0596 0.18304-0.0906 0.20467-0.069 0.0417 0.0417 1.1787 7.3129 1.1826 7.5625 0.002 0.15448-0.11488 0.20334-0.15607 0.065z"/>
    <path id="path4097" fill="url(#linearGradient4105)" d="m309.8 236.95c-0.0872-0.26254-1.3906-8.5052-2.8964-18.317-2.0416-13.303-2.6315-17.944-2.3195-18.249 0.56986-0.55716 29.965-16.695 30.41-16.695 0.22407 0 0.35452 9.4064 0.35452 25.564 0 19.359-0.10507 25.564-0.4329 25.564-0.8233 0-22.561 2.2004-23.757 2.4048-0.80748 0.13801-1.2521 0.0489-1.3588-0.27222z"/>
    <path id="path4107" opacity=".65487" filter="url(#filter4221)" d="m329.94 193.85c9.0989 71.572-27.347 0 0 0z" fill="#fff"/>
    <path id="path4225" fill="url(#linearGradient4233)" d="m397.61 230.87c0-0.17567 1.0586-2.0178 2.3524-4.0937 10.335-16.582 10.514-44.175 0.41375-63.836-7.9954-15.564-21.164-24.731-36.986-25.749-3.009-0.1935-4.7608-0.51588-4.6477-0.85526 0.25726-0.77177 154.62-37.608 160.39-38.275 10.943-1.2652 21.688 1.9847 29.15 8.8163 9.0144 8.253 12.96 20.517 10.161 31.584-0.59503 2.353-1.7292 5.3943-2.5204 6.7584-1.8594 3.2058-6.5597 7.8615-9.5402 9.4496-2.8983 1.5444-117.12 60.588-135.04 69.805-7.1812 3.6936-13.209 6.7156-13.395 6.7156-0.18599 0-0.33815-0.14372-0.33815-0.31938z"/>
    <path id="path4241" filter="url(#filter4375)" fill="#fff" d="m372.43 137.38c20.514-6.6709 44.95-12.16 60.397-16.017 40.849-10.2 60.57-15.759 82.108-19.612 2.3737-0.42459 10.877-2.0129 9.8604-1.04-2.8927 2.7693-146.41 39.94-152.37 36.669z"/>
    <path id="path4379" fill="#ccc" d="m325.3 351.47c-1.2127-0.52843-2.2778-2.2049-2.8509-4.4875-1.5301-6.0943 0.54007-15.401 4.6346-20.835 3.2004-4.2472 6.724-4.6036 8.6274-0.8726 1.0085 1.9768 1.5234 6.4987 1.0958 9.6229-0.87079 6.3622-3.044 11.541-6.1913 14.754-1.7862 1.8235-3.7561 2.4971-5.3156 1.8175z"/>
    <path id="path4381" fill="#ccc" d="m434.88 273.8c-0.77646-0.3871-1.7058-1.7618-2.1171-3.1318-0.18625-0.62036-0.3181-2.5342-0.31534-4.5774 0.004-2.8382 0.11568-3.9001 0.58345-5.5398 1.0111-3.5442 2.7547-6.3513 4.2374-6.8219 2.2977-0.72925 4.1172 3.5276 3.7829 8.8504-0.42263 6.7296-3.5982 12.503-6.1713 11.22z"/>
    <path id="path4383" fill="#ccc" d="m509.59 221.85c-1.0971-1.1776-1.4032-4.904-0.68386-8.3237 0.94868-4.5099 2.7699-6.5065 3.9555-4.3365 0.37881 0.69334 0.46083 1.4766 0.45623 4.3566-0.005 3.1423-0.0784 3.7121-0.69808 5.4225-1.0226 2.8225-2.1159 3.8621-3.0298 2.8812z"/>
    <path id="path4385" fill="#ccc" d="m524.07 211.29c-0.47967-1.0844-0.52421-1.5737-0.40836-4.4866 0.1056-2.6551 0.2563-3.6116 0.80195-5.0901 0.70023-1.8974 1.9367-3.3569 2.6213-3.0942 1.6917 0.64917 1.9082 7.2038 0.36779 11.136-1.2024 3.0693-2.453 3.6368-3.3827 1.5351z"/>
    <path id="path4387" fill="#ccc" d="m539.4 202.43c-1.8043-2.0298-1.0079-10.142 1.2523-12.756 0.53772-0.62205 0.93782-0.87159 1.2224-0.76239 1.8324 0.70318 1.9989 7.7176 0.27588 11.624-1.0192 2.3109-1.8635 2.8924-2.7506 1.8945z"/>
    <path id="path4389" fill="url(#linearGradient4397)" d="m444.99 226.62-8.6074-13.915 4.2661-2.1644c2.3464-1.1904 26.729-13.762 54.183-27.937s50.022-25.668 50.15-25.54c0.29402 0.29402 3.1488 18.773 3.1723 20.534 0.0105 0.78234-0.42686 1.5828-1.0914 1.9979-0.96425 0.60218-1.3007 0.55066-2.5799-0.39506-0.80905-0.59815-1.7382-1.0876-2.0648-1.0876-0.77843 0-36.979 23.267-37.769 24.275-0.33383 0.42598-0.76797 1.9452-0.96477 3.3761l-0.35781 2.6016-7.3582 4.8186c-18.217 11.929-41.997 27.351-42.175 27.351-0.10772 0-4.0692-6.2617-8.8033-13.915z"/>
    <path id="path4399" fill="#4d4d4d" d="m431.25 234.99c-11.228-2.934-20.451-5.3694-20.495-5.4118-0.11517-0.11023 0.60272-1.5623 1.6711-3.3801l0.91909-1.5638 10.848-5.6089c5.9664-3.0849 10.956-5.6334 11.087-5.6633 0.14357-0.0326 3.5919 5.3572 8.6189 13.472 5.6402 9.1044 8.2792 13.52 8.0724 13.508-0.16897-0.01-9.4937-2.4182-20.722-5.3523z"/>
    <path id="path4401" fill="#4d4d4d" d="m388.49 241.93c0.19182-0.89407 0.35287-2.1127 0.3579-2.7081 0.009-1.0343 0.0816-1.1314 1.6347-2.1788 0.89407-0.60291 1.8597-1.2988 2.1458-1.5464 0.66187-0.57283 18.347-9.7042 18.499-9.5518 0.0625 0.0625-0.41792 1.1815-1.0675 2.4868-0.64961 1.3053-1.3741 3.1774-1.61 4.1604l-0.42891 1.7872-3.7949 1.7738c-8.3671 3.911-15.912 7.4025-15.996 7.4025-0.0489 0 0.0681-0.73151 0.25992-1.6256z"/>
    <path id="path4403" fill="#4d4d4d" d="m382.82 243.03c-2.2461-0.53627-4.265-1.0446-4.4866-1.1296-0.75573-0.29-0.40508-0.69111 0.60416-0.69111 1.341 0 5.5166-1.0793 7.381-1.9077l1.4955-0.66457v0.74896c0 0.66686-0.70585 4.4532-0.85232 4.5721-0.0319 0.0259-1.8957-0.39171-4.1418-0.92799z"/>
    <path id="path4405" fill="url(#radialGradient4413)" d="m369.63 239.7c-1.7166-0.37005-4.3276-1.1118-5.8022-1.6484l-2.6811-0.97554-0.30196-7.8285c-0.16608-4.3057-0.42496-20.235-0.57529-35.398s-0.41864-33.093-0.59624-39.843l-0.32291-12.273-1.7386-0.0654c-2.6018-0.0978-10.806-1.1612-11.081-1.4362-0.6447-0.6447 1.1392-1.2531 5.1392-1.7526 15.449-1.9294 28.66 2.1095 38.242 11.691 10.245 10.245 15.998 24.804 16.745 42.378 0.85253 20.042-6.2371 37.434-18.092 44.381-5.0121 2.9373-12.844 4.083-18.935 2.7699z"/>
    <path id="path4431" d="m219 287.69 4.6817 40.054 40.835 15.346 10.664-38.494" stroke="#000" stroke-width="1px" fill="none"/>
    <path id="path4433" d="m222.38 317.08 45.256 16.126" stroke="#000" stroke-width="1px" fill="none"/>
    <path id="path4435" d="m220.82 305.63 49.418 16.646" stroke="#000" stroke-width="1px" fill="none"/>
    <path id="path4437" d="m219.78 295.49 53.579 16.386" stroke="#000" stroke-width="1px" fill="none"/>
    <path id="path4439" d="m359.45 173.77 13.525-7.2826v73.346l-12.484 10.924" stroke="#000" stroke-width="1px" fill="#b3b3b3"/>
    <path id="path4441" d="m373.23 166.22-14.045-4.1615" stroke="#000" stroke-width="1px" fill="#666"/>
  </g>
  <metadata>
    <rdf:RDF>
      <cc:Work>
        <dc:format>image/svg+xml</dc:format>
        <dc:type rdf:resource="http://purl.org/dc/dcmitype/StillImage"/>
        <cc:license rdf:resource="http://creativecommons.org/licenses/publicdomain/"/>
        <dc:publisher>
          <cc:Agent rdf:about="http://openclipart.org/">
            <dc:title>Openclipart</dc:title>
          </cc:Agent>
        </dc:publisher>
      </cc:Work>
      <cc:License rdf:about="http://creativecommons.org/licenses/publicdomain/">
        <cc:permits rdf:resource="http://creativecommons.org/ns#Reproduction"/>
        <cc:permits rdf:resource="http://creativecommons.org/ns#Distribution"/>
        <cc:permits rdf:resource="http://creativecommons.org/ns#DerivativeWorks"/>
      </cc:License>
    </rdf:RDF>
  </metadata>
</svg>
